<?xml version="1.0" encoding="UTF-8" standalone="no"?>
<!-- Uploaded to: SVG Repo, www.svgrepo.com, Generator: SVG Repo Mixer Tools -->

<svg
   aria-label="Arch Linux"
   role="img"
   viewBox="0 0 32 32"
   version="1.1"
   id="svg1"
   sodipodi:docname="archlinux-logo.svg"
   width="32"
   height="32"
   inkscape:version="1.4.2 (ebf0e940d0, 2025-05-08)"
   xmlns:inkscape="http://www.inkscape.org/namespaces/inkscape"
   xmlns:sodipodi="http://sodipodi.sourceforge.net/DTD/sodipodi-0.dtd"
   xmlns="http://www.w3.org/2000/svg"
   xmlns:svg="http://www.w3.org/2000/svg">
  <defs
     id="defs1" />
  <sodipodi:namedview
     id="namedview1"
     pagecolor="#505050"
     bordercolor="#eeeeee"
     borderopacity="1"
     inkscape:showpageshadow="0"
     inkscape:pageopacity="0"
     inkscape:pagecheckerboard="0"
     inkscape:deskcolor="#505050"
     inkscape:zoom="10.3125"
     inkscape:cx="22.109091"
     inkscape:cy="11.733333"
     inkscape:window-width="1352"
     inkscape:window-height="730"
     inkscape:window-x="0"
     inkscape:window-y="0"
     inkscape:window-maximized="1"
     inkscape:current-layer="svg1" />
  <path
     d="m 16,0.099379 c -1.3913,3.478261 -2.28571,5.664596 -3.87578,9.043478 0.99379,1.093168 2.18634,2.285714 4.07454,3.57764 C 14.1118,11.925466 12.7205,11.031056 11.72671,10.136646 9.63975,14.409938 6.45963,20.372671 0.09938,32 5.06832,29.01863 9.04348,27.229814 12.7205,26.534161 12.52174,25.838509 12.42236,25.142857 12.42236,24.347826 v -0.09938 c 0.0994,-3.279503 1.78882,-5.763975 3.7764,-5.565217 1.98758,0.09938 3.57764,2.881987 3.47826,6.16149 l -0.19876,1.689441 c 3.57764,0.695653 7.45342,2.58385 12.42236,5.36646 l -2.68323,-4.968944 c -1.29192,-0.993789 -2.68323,-2.285714 -5.46584,-3.776397 1.8882,0.496894 3.27951,1.093167 4.37267,1.68944 C 19.57764,9.043478 18.88199,6.956522 16,0 Z"
     fill="#1793d1"
     id="path1"
     style="stroke-width:0.0993789" />
</svg>
