<?xml version="1.0" encoding="UTF-8" standalone="no"?>
<svg
   width="32"
   height="36.444374"
   version="1.1"
   id="svg1"
   sodipodi:docname="notification-inactive.svg"
   inkscape:version="1.4.2 (ebf0e940d0, 2025-05-08)"
   xmlns:inkscape="http://www.inkscape.org/namespaces/inkscape"
   xmlns:sodipodi="http://sodipodi.sourceforge.net/DTD/sodipodi-0.dtd"
   xmlns="http://www.w3.org/2000/svg"
   xmlns:svg="http://www.w3.org/2000/svg">
  <defs
     id="defs1" />
  <sodipodi:namedview
     id="namedview1"
     pagecolor="#505050"
     bordercolor="#eeeeee"
     borderopacity="1"
     inkscape:showpageshadow="0"
     inkscape:pageopacity="0"
     inkscape:pagecheckerboard="0"
     inkscape:deskcolor="#505050"
     inkscape:zoom="8.21875"
     inkscape:cx="-2.9201521"
     inkscape:cy="13.870722"
     inkscape:window-width="1352"
     inkscape:window-height="730"
     inkscape:window-x="0"
     inkscape:window-y="0"
     inkscape:window-maximized="1"
     inkscape:current-layer="svg1" />
  <style
     id="current-color-scheme"
     type="text/css">.ColorScheme-Text {
            color:#f2f2f2;
        }
        .ColorScheme-ButtonFocus {
            color:#3daee9;
        }
        .ColorScheme-NegativeText {
            color:#da4453;
        }</style>
  <path
     class="ColorScheme-Text"
     d="m 16.020729,1.78e-5 c -1.442347,0 -2.902756,0.59888 -3.875022,1.6354133 C 11.501831,2.3219556 11.374489,3.25008 11.138756,4.1284089 9.279733,4.828356 7.588,6.14352 6.496444,8.11792 c -1.249742,2.260267 -1.9088,5.161956 -2.027733,8.854222 -0.176,2.9504 -0.887218,4.866311 -1.305547,5.312534 -0.7512529,0.797208 -1.6847107,1.571893 -2.4131551,2.3264 C 0.2697778,25.107573 9.067e-4,25.771022 0,26.461742 v 0.204854 c 1.476e-4,1.472693 1.1939733,2.666488 2.6666667,2.666666 H 8.888889 A 7.1111111,7.1111111 0 0 0 16,36.444373 7.1111111,7.1111111 0 0 0 23.111111,29.333262 h 6.222222 C 30.806027,29.333115 31.999822,28.139289 32,26.666596 v -0.204854 c 3.6e-5,-0.690258 -0.267556,-1.353653 -0.746524,-1.850666 -0.6736,-0.697725 -1.589832,-1.492338 -2.364623,-2.312534 C 28.474311,21.849973 27.752729,19.887698 27.565938,16.89232 27.440053,13.242009 26.789404,10.366809 25.552071,8.121476 24.463271,6.145653 22.767893,4.82832 20.902827,4.1284089 20.6712,3.25424 20.549138,2.33232 19.906293,1.6423644 18.934773,0.5994667 17.465049,0 16.02096,0 Z m 0,2.6666666 c 1.611644,0 2.637511,1.1574045 2.729244,2.8750226 0.03646,0.459146 0.293156,0.662222 0.73264,0.781244 2.9488,0.731253 5.200356,3.9168 5.420089,10.736178 0.201494,3.231289 0.785742,5.712178 2.031289,7.055644 0.897298,0.952356 1.9232,1.854045 2.399289,2.3472 v 0.204854 H 2.6666133 V 26.461973 C 3.142809,25.968764 4.206667,25.067111 5.104124,24.114773 6.36784,22.771396 6.952302,20.290418 7.135413,17.059129 7.3552,10.239929 9.628569,7.054329 12.559058,6.322951 13.016871,6.203929 13.251751,6.000853 13.288231,5.541707 13.379931,3.8241067 14.427573,2.6666844 16.020853,2.6666844 Z M 11.555484,29.333351 h 8.888889 a 4.4444444,4.4444444 0 0 1 -4.444444,4.444445 4.4444444,4.4444444 0 0 1 -4.444445,-4.444445 z"
     fill="currentColor"
     id="path1"
     style="stroke-width:1.77778;fill:#ccd7d4;fill-opacity:1" />
</svg>
