<?xml version="1.0" encoding="UTF-8" standalone="no"?>
<svg
   width="32"
   height="32"
   version="1.1"
   id="svg1"
   sodipodi:docname="notification-disabled.svg"
   inkscape:version="1.4.2 (ebf0e940d0, 2025-05-08)"
   xmlns:inkscape="http://www.inkscape.org/namespaces/inkscape"
   xmlns:sodipodi="http://sodipodi.sourceforge.net/DTD/sodipodi-0.dtd"
   xmlns="http://www.w3.org/2000/svg"
   xmlns:svg="http://www.w3.org/2000/svg">
  <defs
     id="defs1" />
  <sodipodi:namedview
     id="namedview1"
     pagecolor="#505050"
     bordercolor="#eeeeee"
     borderopacity="1"
     inkscape:showpageshadow="0"
     inkscape:pageopacity="0"
     inkscape:pagecheckerboard="0"
     inkscape:deskcolor="#505050"
     inkscape:zoom="11.623068"
     inkscape:cx="13.507621"
     inkscape:cy="15.916624"
     inkscape:window-width="1352"
     inkscape:window-height="730"
     inkscape:window-x="0"
     inkscape:window-y="0"
     inkscape:window-maximized="1"
     inkscape:current-layer="svg1" />
  <style
     id="current-color-scheme"
     type="text/css">.ColorScheme-Text {
            color:#f2f2f2;
        }
        .ColorScheme-ButtonFocus {
            color:#3daee9;
        }
        .ColorScheme-NegativeText {
            color:#da4453;
        }</style>
  <path
     class="ColorScheme-Text"
     d="M 16.013042,1.5649384e-5 C 14.747088,1.5649384e-5 13.465279,0.52565528 12.611918,1.4354251 12.046769,2.0379907 11.935015,2.8526098 11.728111,3.6235229 10.09644,4.2378692 8.6117541,5.3921946 7.6535344,7.1251347 6.5566144,9.10898 5.9781724,11.655805 5.8737835,14.896525 5.7193079,17.486104 5.0950695,19.167708 4.7279003,19.559359 4.0685214,20.259074 3.2492214,20.939017 2.6098624,21.60125 2.1883459,22.037029 1.9523721,22.619341 1.9515764,23.225589 v 0.1798 c 1.247e-4,1.29259 1.0479556,2.340389 2.3405445,2.340546 h 5.461273 a 6.2414538,6.2414538 0 0 0 6.2414541,6.241453 6.2414538,6.2414538 0 0 0 6.241454,-6.241453 h 5.461271 c 1.29259,-1.29e-4 2.34039,-1.047956 2.340545,-2.340546 v -0.1798 C 30.03815,22.619747 29.803284,22.037481 29.382891,21.60125 28.791653,20.988855 27.987489,20.291418 27.30745,19.571529 26.943606,19.177819 26.31027,17.45552 26.146323,14.826464 26.035852,11.62257 25.464755,9.0989933 24.378742,7.128255 23.423082,5.3940675 21.935058,4.237838 20.29808,3.6235229 20.09478,2.8562609 19.987646,2.0470876 19.423418,1.4415106 18.570711,0.5261546 17.280727,2.6245381e-8 16.013244,2.6245381e-8 Z m 0,2.340545150616 c 1.414548,0 2.314954,1.015859 2.395469,2.5234201 0.03199,0.4029952 0.25732,0.581235 0.643042,0.6857016 2.588174,0.641824 4.564376,3.4377935 4.757235,9.4231915 0.176852,2.836117 0.68965,5.013603 1.782872,6.19277 0.787562,0.835886 1.688001,1.627303 2.105866,2.060148 v 0.1798 H 4.2920748 v -0.1798 C 4.7100335,22.7929 5.6437866,22.001515 6.4314891,21.165644 7.5406577,19.986555 8.0536429,17.808991 8.2143603,14.972874 8.4072683,8.9876314 10.402614,6.1916156 12.974717,5.5496825 13.376542,5.4452193 13.582698,5.2669761 13.614716,4.8639809 13.695205,3.3564355 14.614722,2.3405608 16.013151,2.3405608 Z M 12.093877,25.746013 h 7.801817 a 3.9009086,3.9009086 0 0 1 -3.900909,3.900908 3.9009086,3.9009086 0 0 1 -3.900908,-3.900908 z"
     fill="currentColor"
     opacity="0.35"
     id="path1"
     style="fill:#dedede;fill-opacity:1;stroke-width:1.56037" />
  <rect
     class="ColorScheme-Text"
     transform="matrix(0.66126148,0.75015549,-0.66126148,0.75015549,0,0)"
     x="1.9809816"
     y="-2.3680897"
     width="41.662739"
     height="1.9529407"
     rx="0.97647035"
     ry="0.97647035"
     fill="currentColor"
     id="rect1"
     style="fill:#dedede;fill-opacity:1;stroke-width:1.30196" />
</svg>
