<?xml version="1.0" encoding="UTF-8" standalone="no"?>
<svg
   width="32"
   height="32"
   version="1.1"
   id="svg1"
   sodipodi:docname="notification-new.svg"
   inkscape:version="1.4.2 (ebf0e940d0, 2025-05-08)"
   xmlns:inkscape="http://www.inkscape.org/namespaces/inkscape"
   xmlns:sodipodi="http://sodipodi.sourceforge.net/DTD/sodipodi-0.dtd"
   xmlns="http://www.w3.org/2000/svg"
   xmlns:svg="http://www.w3.org/2000/svg">
  <defs
     id="defs1" />
  <sodipodi:namedview
     id="namedview1"
     pagecolor="#505050"
     bordercolor="#eeeeee"
     borderopacity="1"
     inkscape:showpageshadow="0"
     inkscape:pageopacity="0"
     inkscape:pagecheckerboard="0"
     inkscape:deskcolor="#505050"
     inkscape:zoom="11.623068"
     inkscape:cx="17.680358"
     inkscape:cy="20.734629"
     inkscape:window-width="1352"
     inkscape:window-height="730"
     inkscape:window-x="0"
     inkscape:window-y="0"
     inkscape:window-maximized="1"
     inkscape:current-layer="svg1" />
  <style
     id="current-color-scheme"
     type="text/css">.ColorScheme-Text {
            color:#f2f2f2;
        }
        .ColorScheme-ButtonFocus {
            color:#3daee9;
        }
        .ColorScheme-NegativeText {
            color:#da4453;
        }</style>
  <path
     class="ColorScheme-Text"
     d="m 16.018217,1.249e-4 c -1.266449,0 -2.548758,0.525845 -3.402455,1.4359706 -0.565352,0.602801 -0.677165,1.4177383 -0.88415,2.1889528 C 10.099302,4.2396347 8.6138802,5.3944112 7.6554422,7.1280282 6.5581093,9.1126499 5.9794251,11.660471 5.8749963,14.902456 5.7204599,17.493048 5.0959767,19.175309 4.7286482,19.567113 4.0690125,20.2671 3.2493922,20.947309 2.6097834,21.609802 2.1881177,22.045751 1.9520361,22.628291 1.95124,23.234776 v 0.179871 c 1.296e-4,1.293094 1.0483653,2.341304 2.34146,2.34146 H 9.7561067 A 6.2438933,6.2438933 0 0 0 16,32 6.2438933,6.2438933 0 0 0 22.243893,25.756107 h 5.463406 c 1.293096,-1.3e-4 2.341304,-1.048366 2.341461,-2.34146 v -0.179871 c 3.1e-5,-0.606079 -0.234927,-1.188573 -0.655484,-1.624974 -0.591453,-0.612634 -1.395948,-1.310343 -2.076251,-2.030513 -0.363988,-0.393865 -0.997571,-2.116837 -1.161582,-4.746921 -0.03769,-1.092525 -0.133588,-2.10029 -0.280492,-3.039683 a 6.2438933,6.2438933 0 0 1 -2.274338,0.655484 c 0.109736,0.773446 0.186787,1.609988 0.21646,2.530494 0.176921,2.837225 0.689919,5.015564 1.783568,6.195191 0.787871,0.836213 1.688661,1.627939 2.10669,2.060953 v 0.179871 H 4.2927312 V 23.234807 C 4.7108537,22.801746 5.6449715,22.010052 6.4329814,21.173854 7.5425841,19.994304 8.0557695,17.815888 8.2165496,14.978663 8.409533,8.9910819 10.405659,6.1939735 12.978768,5.5517889 c 0.401981,-0.104507 0.608217,-0.2828331 0.640248,-0.6859693 0.08052,-1.5081347 1.000396,-2.5244065 2.399372,-2.5244065 0.700752,0 1.274628,0.2481948 1.686007,0.6829259 A 6.2438933,6.2438933 0 0 1 19.271456,1.2896294 C 18.4216,0.4707896 17.212221,0 16.018388,0 Z M 12.09752,25.756185 h 7.804866 a 3.9024333,3.9024333 0 0 1 -3.902433,3.902433 3.9024333,3.9024333 0 0 1 -3.902433,-3.902433 z"
     fill="currentColor"
     id="path1"
     style="fill:#dedede;fill-opacity:1;stroke-width:1.56098" />
  <circle
     class="ColorScheme-ButtonFocus"
     cx="23.042595"
     cy="6.2440195"
     r="3.9024334"
     fill="currentColor"
     id="circle1"
     style="fill:#2eb39f;fill-opacity:1;stroke-width:1.56098" />
</svg>
