<?xml version="1.0" encoding="UTF-8" standalone="no"?>
<svg
   width="32"
   height="36.444496"
   version="1.1"
   id="svg1"
   sodipodi:docname="notification-empty-old.svg"
   inkscape:version="1.4.2 (ebf0e940d0, 2025-05-08)"
   xmlns:inkscape="http://www.inkscape.org/namespaces/inkscape"
   xmlns:sodipodi="http://sodipodi.sourceforge.net/DTD/sodipodi-0.dtd"
   xmlns="http://www.w3.org/2000/svg"
   xmlns:svg="http://www.w3.org/2000/svg">
  <defs
     id="defs1" />
  <sodipodi:namedview
     id="namedview1"
     pagecolor="#505050"
     bordercolor="#eeeeee"
     borderopacity="1"
     inkscape:showpageshadow="0"
     inkscape:pageopacity="0"
     inkscape:pagecheckerboard="0"
     inkscape:deskcolor="#505050"
     inkscape:zoom="7.2920387"
     inkscape:cx="21.256058"
     inkscape:cy="11.245141"
     inkscape:window-width="1352"
     inkscape:window-height="730"
     inkscape:window-x="0"
     inkscape:window-y="0"
     inkscape:window-maximized="1"
     inkscape:current-layer="svg1" />
  <style
     id="current-color-scheme"
     type="text/css">.ColorScheme-Text {
            color:#f2f2f2;
        }
        .ColorScheme-ButtonFocus {
            color:#3daee9;
        }
        .ColorScheme-NegativeText {
            color:#da4453;
        }</style>
  <path
     class="ColorScheme-Text"
     d="m 16.020747,1.422e-4 c -1.442347,0 -2.902756,0.59888 -3.875023,1.6354134 C 11.501849,2.32208 11.374507,3.2502044 11.138773,4.1285333 9.279751,4.82848 7.588018,6.143644 6.496462,8.118044 5.24672,10.378311 4.587662,13.28 4.468729,16.972267 4.292729,19.922667 3.581511,21.838578 3.163164,22.2848 2.4119111,23.082009 1.4784533,23.856693 0.7500089,24.6112 0.2697778,25.107698 9.067e-4,25.771147 0,26.461867 v 0.204853 c 1.476e-4,1.472693 1.1939733,2.666489 2.6666667,2.666667 H 8.888889 A 7.1111111,7.1111111 0 0 0 16,36.444498 7.1111111,7.1111111 0 0 0 23.111111,29.333387 h 6.222222 C 30.806027,29.333239 31.999822,28.139413 32,26.66672 v -0.204853 c 3.6e-5,-0.690258 -0.267556,-1.353654 -0.746524,-1.850667 -0.6736,-0.697724 -1.589832,-1.492338 -2.364623,-2.312533 -0.414542,-0.448569 -1.136124,-2.410845 -1.322915,-5.406223 -0.04292,-1.244266 -0.152142,-2.392 -0.319449,-3.461866 a 7.1111111,7.1111111 0 0 1 -2.590222,0.746524 c 0.124977,0.880871 0.212729,1.8336 0.246524,2.881956 0.201493,3.231289 0.785742,5.712178 2.031289,7.055644 0.897298,0.952356 1.9232,1.854045 2.399289,2.3472 v 0.204854 H 2.6667022 V 26.461902 C 3.142898,25.968693 4.206756,25.06704 5.104213,24.114702 6.367929,22.771324 6.952391,20.290347 7.135502,17.059058 7.355289,10.239858 9.628658,7.054258 12.559147,6.32288 13.01696,6.203858 13.25184,6.000764 13.28832,5.541636 c 0.0917,-1.7176004 1.139342,-2.8750227 2.732622,-2.8750227 0.79808,0 1.451662,0.2826667 1.920178,0.7777778 A 7.1111111,7.1111111 0 0 1 19.725831,1.4687467 C 18.757938,0.5361778 17.380587,0 16.020942,0 Z M 11.555502,29.333476 h 8.888889 a 4.4444444,4.4444444 0 0 1 -4.444444,4.444444 4.4444444,4.4444444 0 0 1 -4.444445,-4.444444 z"
     fill="currentColor"
     id="path1"
     style="stroke-width:1.77778;fill:#888888;fill-opacity:1" />
  <circle
     class="ColorScheme-Text"
     cx="24.020744"
     cy="7.1112542"
     r="4.4444447"
     fill="currentColor"
     opacity="0.35"
     id="circle1"
     style="stroke-width:1.77778;opacity:1;fill:#888888;fill-opacity:1" />
  <rect
     class="ColorScheme-Text"
     transform="matrix(0.66126148,0.75015549,-0.66126148,0.75015549,0,0)"
     x="0.55460256"
     y="-0.97007036"
     width="47.450436"
     height="2.2242391"
     rx="1.1121196"
     ry="1.1121196"
     fill="currentColor"
     id="rect1"
     style="color:#f2f2f2;fill:#ccd7d4;fill-opacity:1;stroke-width:1.48283" />
</svg>
