<?xml version="1.0" encoding="UTF-8" standalone="no"?>
<svg
   width="32"
   height="36.445374"
   version="1.1"
   id="svg1"
   sodipodi:docname="notification-disabled.svg"
   inkscape:version="1.4.2 (ebf0e940d0, 2025-05-08)"
   xmlns:inkscape="http://www.inkscape.org/namespaces/inkscape"
   xmlns:sodipodi="http://sodipodi.sourceforge.net/DTD/sodipodi-0.dtd"
   xmlns="http://www.w3.org/2000/svg"
   xmlns:svg="http://www.w3.org/2000/svg">
  <defs
     id="defs1" />
  <sodipodi:namedview
     id="namedview1"
     pagecolor="#505050"
     bordercolor="#eeeeee"
     borderopacity="1"
     inkscape:showpageshadow="0"
     inkscape:pageopacity="0"
     inkscape:pagecheckerboard="0"
     inkscape:deskcolor="#505050"
     inkscape:zoom="11.623068"
     inkscape:cx="13.507622"
     inkscape:cy="15.916624"
     inkscape:window-width="1352"
     inkscape:window-height="730"
     inkscape:window-x="0"
     inkscape:window-y="0"
     inkscape:window-maximized="1"
     inkscape:current-layer="svg1" />
  <style
     id="current-color-scheme"
     type="text/css">.ColorScheme-Text {
            color:#f2f2f2;
        }
        .ColorScheme-ButtonFocus {
            color:#3daee9;
        }
        .ColorScheme-NegativeText {
            color:#da4453;
        }</style>
  <path
     class="ColorScheme-Text"
     d="M 16.014854,1.7793472e-5 C 14.573037,1.7793472e-5 13.113162,0.59867816 12.141253,1.6348313 11.497595,2.321104 11.370317,3.2488882 11.13467,4.1268949 9.2763311,4.8265849 7.5853954,6.1412667 6.4940618,8.1149432 5.24476,10.37438 4.5859621,13.275005 4.4670717,16.965918 4.2911367,19.915236 3.5801804,21.830445 3.1620049,22.276503 2.4110265,23.073421 1.4779111,23.84782 0.74973374,24.60205 0.26966097,25.098366 9.0626751e-4,25.761571 0,26.452038 v 0.204778 c 1.4204789e-4,1.472153 1.1935354,2.665511 2.665688,2.665689 h 6.2199414 a 7.1085033,7.1085033 0 0 0 7.1085036,7.108503 7.1085033,7.1085033 0 0 0 7.108503,-7.108503 h 6.21994 c 1.472153,-1.47e-4 2.665511,-1.193536 2.665688,-2.665689 V 26.452038 C 31.9883,25.762034 31.720807,25.098881 31.242014,24.60205 30.568643,23.904582 29.652766,23.110259 28.878258,22.290364 28.463869,21.841961 27.742551,19.880404 27.555829,16.886125 27.430012,13.237153 26.779579,10.363006 25.5427,8.1184969 24.454281,6.1433998 22.759544,4.8265494 20.895161,4.1268949 20.663619,3.2530465 20.541602,2.3314646 19.898993,1.6417622 18.927829,0.59924685 17.458644,0 16.015084,0 Z m 0,2.665688706528 c 1.611054,0 2.636543,1.15698 2.728243,2.8739682 0.03644,0.4589784 0.293066,0.6619789 0.732372,0.7809578 2.947718,0.7309848 5.198449,3.9153645 5.4181,10.7322415 0.20142,3.230104 0.785455,5.710082 2.030545,7.053056 0.896968,0.952006 1.922494,1.853365 2.398408,2.346339 v 0.204778 H 2.6656355 v -0.204778 c 0.4760206,-0.493028 1.5394887,-1.394351 2.4366171,-2.346339 1.2632519,-1.342885 1.8475,-3.822952 2.0305439,-7.053056 0.2197064,-6.8167 2.4922416,-10.0011324 5.4216555,-10.7322415 0.457645,-0.118975 0.69244,-0.3219794 0.728906,-0.7809578 0.09167,-1.7169704 1.138925,-2.8739682 2.73162,-2.8739682 z M 11.551247,29.322594 h 8.885629 a 4.4428145,4.4428145 0 0 1 -4.442815,4.442814 4.4428145,4.4428145 0 0 1 -4.442814,-4.442814 z"
     fill="currentColor"
     opacity="0.35"
     id="path1"
     style="stroke-width:1.77713;fill:#888888;fill-opacity:1;opacity:1" />
  <rect
     class="ColorScheme-Text"
     transform="matrix(0.66126148,0.75015549,-0.66126148,0.75015549,0,0)"
     x="0.57553518"
     y="-1.0164195"
     width="47.450436"
     height="2.2242391"
     rx="1.1121196"
     ry="1.1121196"
     fill="currentColor"
     id="rect1"
     style="fill:#ccd7d4;fill-opacity:1;stroke-width:1.48283" />
</svg>
