<?xml version="1.0" encoding="UTF-8" standalone="no"?>
<svg
   width="32"
   height="32"
   version="1.1"
   id="svg1"
   sodipodi:docname="notification-empty.svg"
   inkscape:version="1.4.2 (ebf0e940d0, 2025-05-08)"
   xmlns:inkscape="http://www.inkscape.org/namespaces/inkscape"
   xmlns:sodipodi="http://sodipodi.sourceforge.net/DTD/sodipodi-0.dtd"
   xmlns="http://www.w3.org/2000/svg"
   xmlns:svg="http://www.w3.org/2000/svg">
  <defs
     id="defs1" />
  <sodipodi:namedview
     id="namedview1"
     pagecolor="#505050"
     bordercolor="#eeeeee"
     borderopacity="1"
     inkscape:showpageshadow="0"
     inkscape:pageopacity="0"
     inkscape:pagecheckerboard="0"
     inkscape:deskcolor="#505050"
     inkscape:zoom="11.623068"
     inkscape:cx="15.959642"
     inkscape:cy="19.530128"
     inkscape:window-width="1352"
     inkscape:window-height="730"
     inkscape:window-x="0"
     inkscape:window-y="0"
     inkscape:window-maximized="1"
     inkscape:current-layer="svg1" />
  <style
     id="current-color-scheme"
     type="text/css">.ColorScheme-Text {
            color:#f2f2f2;
        }
        .ColorScheme-ButtonFocus {
            color:#3daee9;
        }
        .ColorScheme-NegativeText {
            color:#da4453;
        }</style>
  <path
     class="ColorScheme-Text"
     d="M 16.018201,1.5629299e-5 C 14.751748,1.5629299e-5 13.469435,0.52586251 12.615736,1.4359911 12.05038,2.0387943 11.938568,2.8537344 11.731582,3.6249515 10.099266,4.2395404 8.6138392,5.3943208 7.6553979,7.1279437 6.5580613,9.1125723 5.9793751,11.660402 5.8749459,14.902398 5.720409,17.492998 5.0959237,19.175265 4.7286097,19.567071 4.0689718,20.26706 3.2493487,20.947272 2.6097377,21.609768 2.1880705,22.045717 1.9519881,22.628259 1.951192,23.234746 v 0.179872 c 1.296e-4,1.293099 1.0483689,2.341311 2.341468,2.341467 H 9.7560854 A 6.2439147,6.2439147 0 0 0 16,32 6.2439147,6.2439147 0 0 0 22.243915,25.756085 h 5.463425 c 1.293099,-1.29e-4 2.341312,-1.048368 2.341468,-2.341467 V 23.234746 C 30.04884,22.628664 29.81388,22.04617 29.393322,21.609768 28.801867,20.99713 27.997369,20.29942 27.317064,19.579246 26.953075,19.18538 26.31949,17.462403 26.155478,14.83231 26.044944,11.627153 25.473642,9.1025818 24.387201,7.1310661 23.431179,5.3961937 21.942552,4.2395088 20.30493,3.6249515 20.10155,2.8573871 19.994373,2.0478947 19.429923,1.4420789 18.576879,0.52636204 17.286387,0 16.018404,0 Z m 0,2.341467970701 c 1.415105,0 2.315868,1.0162596 2.396414,2.524415 0.03201,0.4031534 0.257406,0.5814644 0.643295,0.6859717 2.589195,0.6420771 4.566175,3.4391482 4.759112,9.4269067 0.176922,2.837235 0.689921,5.015581 1.783574,6.195212 0.787873,0.836216 1.688667,1.627945 2.106697,2.06096 v 0.179872 H 4.2926131 v -0.179872 c 0.4181239,-0.433063 1.352245,-1.22476 2.1402575,-2.06096 1.1096065,-1.179553 1.6227937,-3.357977 1.7835744,-6.195212 0.1929841,-5.9876022 2.189117,-8.7847199 4.762234,-9.4269067 0.401983,-0.1045073 0.60822,-0.2828183 0.640251,-0.6859717 0.08052,-1.5081398 1.0004,-2.524415 2.39938,-2.524415 z m -3.92071,23.4146804 h 7.804893 a 3.9024466,3.9024466 0 0 1 -3.902446,3.902447 3.9024466,3.9024466 0 0 1 -3.902447,-3.902447 z"
     fill="currentColor"
     id="path1"
     style="fill:#dedede;fill-opacity:1;stroke-width:1.56098" />
</svg>
