<?xml version="1.0" encoding="UTF-8" standalone="no"?>
<svg
   width="32"
   height="32"
   version="1.1"
   id="svg1"
   sodipodi:docname="notification-disabled-new.svg"
   inkscape:version="1.4.2 (ebf0e940d0, 2025-05-08)"
   xmlns:inkscape="http://www.inkscape.org/namespaces/inkscape"
   xmlns:sodipodi="http://sodipodi.sourceforge.net/DTD/sodipodi-0.dtd"
   xmlns="http://www.w3.org/2000/svg"
   xmlns:svg="http://www.w3.org/2000/svg">
  <defs
     id="defs1" />
  <sodipodi:namedview
     id="namedview1"
     pagecolor="#505050"
     bordercolor="#eeeeee"
     borderopacity="1"
     inkscape:showpageshadow="0"
     inkscape:pageopacity="0"
     inkscape:pagecheckerboard="0"
     inkscape:deskcolor="#505050"
     inkscape:zoom="7.2920387"
     inkscape:cx="21.256058"
     inkscape:cy="11.245141"
     inkscape:window-width="1352"
     inkscape:window-height="730"
     inkscape:window-x="0"
     inkscape:window-y="0"
     inkscape:window-maximized="1"
     inkscape:current-layer="svg1" />
  <style
     id="current-color-scheme"
     type="text/css">.ColorScheme-Text {
            color:#f2f2f2;
        }
        .ColorScheme-ButtonFocus {
            color:#3daee9;
        }
        .ColorScheme-NegativeText {
            color:#da4453;
        }</style>
  <path
     class="ColorScheme-Text"
     d="m 16.032579,1.24841e-4 c -1.265757,0 -2.547364,0.525557529 -3.400594,1.435185359 C 12.066941,2.0377816 11.95519,2.8522733 11.748318,3.623066 10.116901,4.2373164 8.6322912,5.3914614 7.6743773,7.1241303 6.5776445,9.1076668 5.9992767,11.654094 5.894905,14.894307 5.7404532,17.483482 5.1163115,19.164823 4.7491838,19.556413 4.0899088,20.256017 3.2707367,20.935855 2.6314777,21.597985 2.2100426,22.033696 1.9740901,22.615917 1.9732944,23.22207 v 0.179773 c 1.295e-4,1.292387 1.047792,2.340023 2.3401796,2.340179 h 5.4604191 a 6.2404789,6.2404789 0 0 0 6.2404789,6.240479 6.2404789,6.2404789 0 0 0 6.240479,-6.240479 h 5.460418 c 1.292389,-1.29e-4 2.340024,-1.047792 2.34018,-2.340179 V 23.22207 c 3.2e-5,-0.605748 -0.234798,-1.187922 -0.655125,-1.624085 -0.591129,-0.612299 -1.395184,-1.309627 -2.075116,-2.029403 -0.363788,-0.39365 -0.997025,-2.115679 -1.160947,-4.744325 -0.03767,-1.091927 -0.133515,-2.099141 -0.280338,-3.03802 a 6.2404789,6.2404789 0 0 1 -2.273094,0.655125 c 0.109676,0.773023 0.186684,1.609107 0.216341,2.52911 0.176824,2.835674 0.689542,5.012821 1.782593,6.191803 0.78744,0.835756 1.687738,1.627049 2.105538,2.059826 v 0.179773 H 4.3135052 V 23.222101 C 4.731399,22.789277 5.6650061,21.998016 6.452585,21.162275 7.5615809,19.98337 8.0744857,17.806146 8.2351779,14.970472 8.4280558,8.986165 10.42309,6.1905865 12.994792,5.548753 13.396553,5.4443032 13.602676,5.2660746 13.63469,4.8631588 c 0.08047,-1.50731 0.999849,-2.523026 2.39806,-2.523026 0.700369,0 1.273931,0.2480591 1.685085,0.6825524 a 6.2404789,6.2404789 0 0 1 1.566204,-1.733761 C 18.434648,0.47053218 17.22593,5.0922129e-8 16.03275,5.0922129e-8 Z M 12.114026,25.742101 h 7.800598 a 3.9002992,3.9002992 0 0 1 -3.900299,3.900298 3.9002992,3.9002992 0 0 1 -3.900299,-3.900298 z"
     fill="currentColor"
     id="path1"
     style="opacity:0.350151;fill:#dedede;fill-opacity:1;stroke-width:1.56012" />
  <circle
     class="ColorScheme-Text"
     cx="23.053116"
     cy="6.2406044"
     r="3.9002995"
     fill="currentColor"
     opacity="0.35"
     id="circle1"
     style="opacity:0.350127;fill:#dedede;fill-opacity:1;stroke-width:1.56012" />
  <rect
     class="ColorScheme-Text"
     transform="matrix(0.66126148,0.75015549,-0.66126148,0.75015549,0,0)"
     x="1.9787693"
     y="-2.3433702"
     width="41.640953"
     height="1.9519196"
     rx="0.97595978"
     ry="0.97595978"
     fill="currentColor"
     id="rect1"
     style="color:#f2f2f2;fill:#dedede;fill-opacity:1;stroke-width:1.30128" />
</svg>
