<?xml version="1.0" encoding="UTF-8" standalone="no"?>
<svg
   version="1.1"
   viewBox="0 0 32 32"
   id="svg1"
   sodipodi:docname="media-record.svg"
   inkscape:version="1.4.2 (ebf0e940d0, 2025-05-08)"
   xmlns:inkscape="http://www.inkscape.org/namespaces/inkscape"
   xmlns:sodipodi="http://sodipodi.sourceforge.net/DTD/sodipodi-0.dtd"
   xmlns="http://www.w3.org/2000/svg"
   xmlns:svg="http://www.w3.org/2000/svg">
  <sodipodi:namedview
     id="namedview1"
     pagecolor="#505050"
     bordercolor="#eeeeee"
     borderopacity="1"
     inkscape:showpageshadow="0"
     inkscape:pageopacity="0"
     inkscape:pagecheckerboard="0"
     inkscape:deskcolor="#505050"
     inkscape:zoom="11.623068"
     inkscape:cx="10.754475"
     inkscape:cy="16.60491"
     inkscape:window-width="1352"
     inkscape:window-height="730"
     inkscape:window-x="0"
     inkscape:window-y="0"
     inkscape:window-maximized="1"
     inkscape:current-layer="svg1" />
  <defs
     id="defs1">
    <style
       id="current-color-scheme"
       type="text/css">.ColorScheme-Text {
        color:#dedede;
      }</style>
  </defs>
  <path
     d="M 16,0 A 16,16 0 0 0 0,16 16,16 0 0 0 16,32 16,16 0 0 0 32,16 16,16 0 0 0 16,0 Z m 0,2.1818182 A 13.818182,13.818182 0 0 1 29.818182,16 13.818182,13.818182 0 0 1 16,29.818182 13.818182,13.818182 0 0 1 2.1818182,16 13.818182,13.818182 0 0 1 16,2.1818182 Z M 15.91193,10.181818 C 12.733023,10.229905 10.181459,12.8208 10.18175,16 c 0,3.213236 2.604945,5.818182 5.818182,5.818182 3.213236,0 5.818181,-2.604946 5.818181,-5.818182 0,-3.213236 -2.604945,-5.818182 -5.818181,-5.818182 -0.02937,-2.21e-4 -0.0587,-2.21e-4 -0.08807,0 z"
     fill="#da4453"
     id="path1"
     style="stroke-width:1.45455;fill:#2eb398;fill-opacity:1" />
</svg>
