<?xml version="1.0" encoding="UTF-8" standalone="no"?>
<svg
   width="32"
   height="32"
   version="1.1"
   id="svg1"
   sodipodi:docname="workspace-default.svg"
   inkscape:version="1.4.2 (ebf0e940d0, 2025-05-08)"
   xmlns:inkscape="http://www.inkscape.org/namespaces/inkscape"
   xmlns:sodipodi="http://sodipodi.sourceforge.net/DTD/sodipodi-0.dtd"
   xmlns="http://www.w3.org/2000/svg"
   xmlns:svg="http://www.w3.org/2000/svg">
  <defs
     id="defs1" />
  <sodipodi:namedview
     id="namedview1"
     pagecolor="#505050"
     bordercolor="#eeeeee"
     borderopacity="1"
     inkscape:showpageshadow="0"
     inkscape:pageopacity="0"
     inkscape:pagecheckerboard="0"
     inkscape:deskcolor="#505050"
     inkscape:zoom="13.15625"
     inkscape:cx="15.885986"
     inkscape:cy="15.961995"
     inkscape:window-width="1352"
     inkscape:window-height="730"
     inkscape:window-x="0"
     inkscape:window-y="0"
     inkscape:window-maximized="1"
     inkscape:current-layer="svg1" />
  <style
     id="current-color-scheme"
     type="text/css">.ColorScheme-Text {
            color:#f2f2f2;
        }
        .ColorScheme-ButtonFocus {
            color:#3daee9;
        }
        .ColorScheme-NegativeText {
            color:#da4453;
        }</style>
  <path
     class="ColorScheme-Text"
     d="M 16,0 C 7.1632,-5.9930017e-4 0,7.1632 0,16 -6.0029986e-4,24.8368 7.1632,32 16,32 24.8368,32.000602 32,24.8368 32,16 32.000598,7.1632 24.8368,0 16,0 Z m 0,2.4 A 13.6,13.6 0 0 1 29.6,16 13.6,13.6 0 0 1 16,29.6 13.6,13.6 0 0 1 2.4,16 13.6,13.6 0 0 1 16,2.4 Z"
     fill="currentColor"
     id="path1"
     style="fill:#ccd7d4;fill-opacity:1;stroke-width:1.6" />
  <circle
     class="ColorScheme-ButtonFocus"
     cx="16"
     cy="16"
     r="10.4"
     fill="currentColor"
     id="circle1"
     style="fill:#ccd7d4;fill-opacity:1;stroke-width:1.6" />
</svg>
